<svg width="24" height="16" viewBox="0 0 24 16" fill="none" xmlns="http://www.w3.org/2000/svg">
<path d="M22.2398 6.4H1.7598C0.876605 6.4 0.799805 7.1152 0.799805 8C0.799805 8.8848 0.876605 9.6 1.7598 9.6H22.2398C23.123 9.6 23.1998 8.8848 23.1998 8C23.1998 7.1152 23.123 6.4 22.2398 6.4ZM22.2398 12.8H1.7598C0.876605 12.8 0.799805 13.5152 0.799805 14.4C0.799805 15.2848 0.876605 16 1.7598 16H22.2398C23.123 16 23.1998 15.2848 23.1998 14.4C23.1998 13.5152 23.123 12.8 22.2398 12.8ZM1.7598 3.2H22.2398C23.123 3.2 23.1998 2.4848 23.1998 1.6C23.1998 0.7152 23.123 0 22.2398 0H1.7598C0.876605 0 0.799805 0.7152 0.799805 1.6C0.799805 2.4848 0.876605 3.2 1.7598 3.2Z" fill="#585D61"/>
</svg>
