<svg width="40" height="40" viewBox="0 0 40 40" fill="none" xmlns="http://www.w3.org/2000/svg">
<path d="M9 27.75C9 26.2913 9.57946 24.8924 10.6109 23.8609C11.6424 22.8295 13.0413 22.25 14.5 22.25H25.5C26.9587 22.25 28.3576 22.8295 29.3891 23.8609C30.4205 24.8924 31 26.2913 31 27.75C31 28.4793 30.7103 29.1788 30.1945 29.6945C29.6788 30.2103 28.9793 30.5 28.25 30.5H11.75C11.0207 30.5 10.3212 30.2103 9.80546 29.6945C9.28973 29.1788 9 28.4793 9 27.75Z" stroke="black" stroke-linejoin="round"/>
<path d="M20 16.75C22.2782 16.75 24.125 14.9032 24.125 12.625C24.125 10.3468 22.2782 8.5 20 8.5C17.7218 8.5 15.875 10.3468 15.875 12.625C15.875 14.9032 17.7218 16.75 20 16.75Z" stroke="black"/>
</svg>
