<svg width="20" height="24" viewBox="0 0 20 24" fill="none" xmlns="http://www.w3.org/2000/svg">
<path d="M7.375 11.5706C7.78797 14.3185 7.03141 15.8208 4.89484 16.1367C2.52062 16.4878 1.54234 14.8974 1.12938 12.1496C0.573907 8.45205 1.87938 6.15237 3.74078 6.00424C5.43484 5.86971 6.96156 8.8233 7.375 11.5706ZM8.48359 19.1967C8.63031 20.7567 7.78703 22.2127 6.51484 22.4621C5.23047 22.7133 3.76281 21.6947 3.46375 20.1563C3.16469 18.6178 4.29578 18.5363 5.68187 18.2714C7.06797 18.0066 8.30641 17.3152 8.48359 19.1967ZM12.625 7.07018C12.212 9.81799 12.9686 11.3203 15.1047 11.6363C17.4794 11.9874 18.4572 10.3969 18.8702 7.64909C19.4261 3.95112 18.1202 1.63877 16.2592 1.50377C14.553 1.38002 13.0384 4.32237 12.625 7.07018ZM11.5164 14.6967C11.3697 16.2563 12.213 17.7127 13.4852 17.9621C14.7695 18.2133 16.2372 17.1947 16.5362 15.6563C16.8353 14.1178 15.7042 14.0363 14.3181 13.771C12.932 13.5056 11.6936 12.8147 11.5164 14.6967Z" stroke="#6F727F" stroke-width="1.5" stroke-miterlimit="10"/>
</svg>
